<svg xmlns="http://www.w3.org/2000/svg" viewBox="0 0 772.35 643.09"><defs><style>.cls-1{fill:#acacaf;}.cls-2{fill:#458dad;}.cls-3{fill:#084d60;}.cls-4{fill:#0d3b54;}.cls-5,.cls-7{fill:#d8d8d8;}.cls-5{stroke:#000;stroke-width:4px;}.cls-10,.cls-5,.cls-8{stroke-linecap:round;}.cls-10,.cls-11,.cls-5,.cls-8{stroke-miterlimit:10;}.cls-6{fill:#bcbcbc;}.cls-10,.cls-11,.cls-8{fill:none;stroke-width:3px;}.cls-8{stroke:#0d3b54;}.cls-9{fill:#326f84;}.cls-10{stroke:#326f84;}.cls-11{stroke:#082735;}</style></defs><title>Asset 1</title><g id="Layer_2" data-name="Layer 2"><g id="Layer_1-2" data-name="Layer 1"><rect class="cls-1" x="409.38" y="362.45" width="78.55" height="14.54"/><rect class="cls-2" x="242.78" y="445.42" width="128.82" height="169.51"/><rect class="cls-3" x="184.27" y="601.14" width="243.35" height="35.25" rx="6.03" ry="6.03"/><rect class="cls-3" x="286.61" y="390.12" width="32.49" height="224.8"/><rect class="cls-3" x="206.09" y="372.5" width="331.01" height="35.25" rx="5.02" ry="5.02"/><rect class="cls-4" x="248.67" y="362.45" width="64.97" height="10.05"/><polygon class="cls-4" points="257.96 367.47 257.96 310.24 281.16 271.02 281.16 306.76 269.56 319.24 269.56 367.47 257.96 367.47"/><polygon class="cls-4" points="281.16 229.95 281.16 319.24 307.19 342.67 297.72 191.32 281.16 229.95"/><polygon class="cls-2" points="297.72 191.32 307.19 189.69 315.99 342.67 307.19 342.67 297.72 191.32"/><line class="cls-5" x1="481.81" y1="145.55" x2="531.6" y2="94.29"/><polyline class="cls-6" points="649.5 280.65 541.28 224.91 507.48 139.3 512.42 131.37 491.17 105.49 473.45 132.1 488.89 155.29 493.95 149.26 529.09 238.84 649.5 310.51"/><path class="cls-7" d="M679.21,258.68V219.3s41-.79,36.28-58.73-54.08-57.94-64.08-53.21-25.77,18.91-25.77,25.22-18.92,28-18.92,28h11.76s-6.56,40.93,15.28,44.3l17.65,1.63V249Z"/><path class="cls-2" d="M703,448H631.17c-7.33,0-13.58-4.95-14.74-11.67l6.24-195.52c-1.46-8.44,5.55-16.09,14.75-16.09H702c8.78,0,15.67,7,14.87,15.14l1,195.52C717.17,442.56,710.72,448,703,448Z"/><path class="cls-4" d="M717.87,395.54s13.19,66.63-14.54,66.63H536.92l-44,161.36,6.52,19.56-71.78-7.68,45.68-25.67,31-196.2Z"/><path class="cls-4" d="M649.5,126.45l-27.72-6.53,13.86-9.18-1.42-5.25,15.28-5.22s54.49-6.11,68.37,32.29v23.57h-8.82l-2.61-10.58-15.71-6-9.22-5.09-3-6.43Z"/><polygon class="cls-2" points="124.9 224.75 42.68 224.75 32.19 141.04 130.73 141.04 124.9 224.75"/><line class="cls-8" x1="1.5" y1="224.75" x2="170.65" y2="224.75"/><path class="cls-3" d="M85.77,138.25S34.52,78.47,80.31,0C96.81,26.63,110.71,65.42,85.77,138.25Z"/><path class="cls-4" d="M90.55,141s-63-22.7-62.14-100C51.81,53.81,78.4,76.67,90.55,141Z"/><path class="cls-2" d="M85.23,136.15S139.09,105.37,125.9,35C106.61,50.42,86,75.52,85.23,136.15Z"/><rect class="cls-9" x="21.98" y="128.02" width="115.82" height="28.11" rx="1.76" ry="1.76"/><path class="cls-10" d="M543.83,462.17H713.36a32.68,32.68,0,0,0,32.18-38.66c-10.23-54.17-20.19-153.41,25.31-219.39"/><path class="cls-11" d="M523.23,632.55s191.36-533.27,222,0"/><path class="cls-7" d="M695,319.24H666.36l-4.93,50.94L501.77,354.47l-5-11.82-7.89,11.82-35.2-1v8.09l30.19,1.56v7.05h29.66l156.65,23a12.91,12.91,0,0,0,14.63-10.73Z"/></g></g></svg>