<svg xmlns="http://www.w3.org/2000/svg" viewBox="0 0 1047.38 463.2"><defs><style>.cls-1{fill:#010102;}.cls-2{fill:#0d3b54;}.cls-3{fill:#559ec6;}.cls-4{fill:#195e8e;}.cls-5{fill:#1d1d1b;stroke:#000;stroke-linecap:round;stroke-width:3px;}.cls-12,.cls-5{stroke-miterlimit:10;}.cls-6{fill:#092735;}.cls-7{fill:#458dad;}.cls-8{fill:#d8d8d8;}.cls-9{fill:#051e28;}.cls-10{fill:#084d60;}.cls-11{fill:#0b2d3d;}.cls-12{fill:none;stroke:#559ec6;}.cls-13{fill:#ffc342;opacity:0.7;}</style></defs><title>couple sitting</title><g id="Layer_2" data-name="Layer 2"><g id="Layer_1-2" data-name="Layer 1"><polygon class="cls-1" points="120.64 375.26 120.64 402.45 126.85 426.15 133.55 426.15 141.76 400.71 141.76 375.26 120.64 375.26"/><polygon class="cls-1" points="22.5 362.96 22.5 390.15 28.71 413.85 35.41 413.85 43.62 388.41 43.62 362.96 22.5 362.96"/><polygon class="cls-1" points="583.04 375.26 583.04 402.45 589.25 426.15 595.95 426.15 604.16 400.71 604.16 375.26 583.04 375.26"/><polygon class="cls-1" points="499.59 349.81 499.59 377 505.8 400.71 512.5 400.71 520.71 375.26 520.71 349.81 499.59 349.81"/><path class="cls-2" d="M71.41,339.46H552.7V178c0-5.45-3.2-10.77-9.27-15.07a112.19,112.19,0,0,0-64-20.62H51.65Z"/><path class="cls-3" d="M70.24,193.58V159.75a13,13,0,0,0-3.72-9.13c-15.23-15.4-26.64-5-31.23.93a10.63,10.63,0,0,0-2.23,6.55v70.18H69.72Z"/><path class="cls-4" d="M126.85,380.45H0V234a22.22,22.22,0,0,1,4.64-13.67c5.87-7.52,17-18.58,32.09-18.71h81.46Z"/><path class="cls-4" d="M615.23,375.26H490.16V233.53a21.21,21.21,0,0,1,4.58-13.23c5.78-7.28,16.79-18,31.63-18.11h80.32Z"/><path class="cls-3" d="M206.09,334.14l-58.53-.95V236.43a27.1,27.1,0,0,0-7.77-19c-31.79-32.16-45.45-9.42-55,2.89A22.22,22.22,0,0,0,80.1,234v146.5h552V234a22.23,22.23,0,0,0-4.65-13.67c-9.6-12.31-21.91-34.38-52.31-.3-4.74,5.31-7.77,11.93-7.77,19v96.76l-46.49-1.64Z"/><line class="cls-5" x1="302.17" y1="184.01" x2="347.73" y2="184.01"/><ellipse class="cls-2" cx="224.96" cy="45.77" rx="29.31" ry="30.81"/><path class="cls-6" d="M205,266.32s-29.81,40.24,0,51.42,46.94-2.43,46.94-2.43l102.29,9.88,95.92,76-5.22,8.95h58.87L463.51,396,372.43,293.15S219.11,255.46,205,266.32Z"/><path class="cls-7" d="M227.11,308.2h-58.8a12.13,12.13,0,0,1-12.07-10L128.51,130.85a12,12,0,0,1,12.07-13.77H242.83A12,12,0,0,1,255,130L239.28,297.4A12.09,12.09,0,0,1,227.11,308.2Z"/><path class="cls-2" d="M166.23,283.47s-29.81,40.24,0,51.42,46.94-2.43,46.94-2.43l102.29,9.88,95.92,76-5.22,8.94H465l-40.24-14.15L333.71,310.3S180.38,272.61,166.23,283.47Z"/><path class="cls-8" d="M314.86,190.1v6.61l-30.14-1.31L156.49,214.2a10.57,10.57,0,0,1-12-8.78l-8.31-51.71h23.4l4,41.69,130.69-12.86.72-1.71a7.11,7.11,0,0,1,10.54-3.1l9.26,6.28"/><path class="cls-8" d="M172.21,117.43l27.23,22.89,19.72-22.89-16.9-.58v-16s39.44.94,26.29-32.86H241.7l-16-14.09-6.57-28.17S153.43-2.41,182.54,95.25v20.66Z"/><circle class="cls-2" cx="182.45" cy="42.1" r="27.13"/><ellipse class="cls-2" cx="208.74" cy="18.15" rx="21.33" ry="18.14"/><path class="cls-9" d="M458.44,275.56s-9.25,47-.93,53.07S582.89,368,582.89,368l83.45,81.35-10.56,7.39,69.8,6.47L688,438.27l-80.48-98.81Z"/><path class="cls-10" d="M462.66,314.38H394.23c-7,0-12.94-4.63-14.05-10.93l-32.27-183c-1.39-7.9,5.29-15.06,14-15.06H481c8.37,0,14.93,6.56,14.17,14.17l-18.3,183C476.15,309.26,470,314.38,462.66,314.38Z"/><path class="cls-11" d="M394.58,279.36A7.63,7.63,0,0,0,384,285.2c-2.21,14.09-5.17,39.1.74,43.43C393.09,334.72,510.15,368,510.15,368l83.45,81.35L583,456.73l69.8,6.47-37.61-24.93-80.48-98.81Z"/><path class="cls-8" d="M428,297l-35.87-96.1.54-40.85H356.1l8.31,51.72c.73,4.52,1.08,12.74,4,15.56a32.46,32.46,0,0,1,6.75,8.31l37.62,72.54s12.32,20.43,18.06,20.43,13.65-20,12.93-20.43S428,297,428,297Z"/><path class="cls-8" d="M397.14,105.5l35.29,22.9L458,105.5l-21.91-.58V89s51.12.94,34.08-32.87h17L466.51,42,458,13.83S372.8-14.34,410.53,83.32V104Z"/><path class="cls-7" d="M397.14,51.53l34.41-19.25h12.3L465,27h13S461.5.23,437.56,0,385,23.16,397.14,51.53Z"/><path class="cls-12" d="M962.89,153.71s45.84,43.74,0,119.22"/><rect class="cls-6" x="862.56" y="264.36" width="184.82" height="17.15"/><rect class="cls-2" x="941.56" y="42.1" width="21.33" height="202.25" rx="4.45"/><circle class="cls-13" cx="913.71" cy="140.32" r="97.17"/></g></g></svg>