<svg xmlns="http://www.w3.org/2000/svg" viewBox="0 0 129.16 130"><defs><style>.cls-1{fill:#ffc342;}.cls-2{fill:#50c4d2;}.cls-3{fill:#195e8e;}.cls-4{fill:#fff;}.cls-5{fill:#fcfcfc;}</style></defs><title>logo</title><g id="Layer_2" data-name="Layer 2"><g id="Layer_1-2" data-name="Layer 1"><rect class="cls-1" y="0.79" width="129.16" height="129.16" rx="11.1"/><path class="cls-2" d="M24.8,17.45V41.27c0,9,4,12.84,9.37,12.84,6,0,9.79-3.94,9.79-12.84V17.45h5.26V40.92c0,12.35-6.51,17.43-15.23,17.43-8.23,0-14.44-4.72-14.44-17.2V17.45Z"/><path class="cls-3" d="M62.61,57.69V17.45h5.67l12.9,20.36A114.84,114.84,0,0,1,88.4,50.89l.12-.06c-.48-5.38-.59-10.27-.59-16.54V17.45h4.89V57.69H87.57L74.79,37.27a127.81,127.81,0,0,1-7.52-13.43l-.18.06c.3,5.08.42,9.91.42,16.6V57.69Z"/><path class="cls-4" d="M40.61,103.56a37.35,37.35,0,0,1-12.36,2.21c-6.09,0-11.1-1.55-15-5.31-3.46-3.34-5.61-8.72-5.61-15,.06-12,8.29-20.78,21.79-20.78a25,25,0,0,1,10,1.85l-1.26,4.24a20.76,20.76,0,0,0-8.89-1.73c-9.79,0-16.18,6.09-16.18,16.18s6.15,16.23,15.52,16.23c3.4,0,5.73-.47,6.93-1.07v-12H27.36V84.22H40.61Z"/><path class="cls-2" d="M55.06,92.7l-4.18,12.66H45.5L59.17,65.12h6.27l13.73,40.24H73.62L69.32,92.7Zm13.19-4.06L64.31,77.06c-.9-2.63-1.49-5-2.09-7.34H62.1c-.6,2.38-1.25,4.83-2,7.28L56.13,88.64Z"/><path class="cls-2" d="M85.08,65.6a59.92,59.92,0,0,1,10-.78c5.14,0,8.9,1.19,11.29,3.34a10.85,10.85,0,0,1,3.52,8.42,11.86,11.86,0,0,1-3.11,8.6c-2.74,2.92-7.22,4.41-12.29,4.41a17.78,17.78,0,0,1-4.18-.35v16.12h-5.2ZM90.28,85a17.25,17.25,0,0,0,4.29.42c6.27,0,10.09-3,10.09-8.6,0-5.31-3.76-7.88-9.49-7.88a21.59,21.59,0,0,0-4.89.42Z"/><path class="cls-3" d="M98.21,66.14a61.2,61.2,0,0,1,10-.77c5.14,0,8.9,1.19,11.29,3.34A10.85,10.85,0,0,1,123,77.13a11.82,11.82,0,0,1-3.11,8.59c-2.74,2.93-7.22,4.42-12.29,4.42a17.74,17.74,0,0,1-4.18-.36V105.9h-5.2Zm5.2,19.41a17.79,17.79,0,0,0,4.29.41c6.27,0,10.09-3,10.09-8.59,0-5.32-3.76-7.88-9.49-7.88a22.37,22.37,0,0,0-4.89.41Z"/><polygon class="cls-5" points="100.83 130 88.83 130 40.83 0 52.83 0 100.83 130"/></g></g></svg>