<svg xmlns="http://www.w3.org/2000/svg" viewBox="0 0 322.93 252.13"><defs><style>.cls-1{fill:none;stroke:#0b0b3f;}.cls-1,.cls-8{stroke-miterlimit:10;}.cls-2{fill:#0d3b54;}.cls-3{fill:#559ec6;}.cls-4{fill:#195e8e;}.cls-5{fill:#0b0b3f;}.cls-6{fill:#eeeae6;}.cls-7{fill:#458dad;}.cls-8{stroke:#000;stroke-linecap:round;stroke-width:4px;}</style></defs><title>woman sitting with plants</title><g id="Layer_2" data-name="Layer 2"><g id="bottom_section" data-name="bottom section"><g id="zetel"><path class="cls-1" d="M108.41.37s-9,8.06,0,13.3-2,13.11-2,13.11-13.6,9.6,1.77,14.41"/><path class="cls-2" d="M87.85,57.56a18.56,18.56,0,0,1,37.12,0"/><path class="cls-2" d="M7.08,209.32h36a0,0,0,0,1,0,0v20.06a16,16,0,0,1-16,16H23a16,16,0,0,1-16-16V209.32A0,0,0,0,1,7.08,209.32Z"/><path class="cls-3" d="M24.51,167.73c2.38,9.34-3.74,13.47-9,14.81S3.18,182.26.8,172.92,1.65,150,6.89,148.71,22.12,158.39,24.51,167.73Z"/><path class="cls-4" d="M53.56,151.33c-3.51,11.48-13.41,11.69-20.4,9.55S19,152.23,22.49,140.76s16.36-23.57,23.36-21.43S57.06,139.86,53.56,151.33Z"/><path class="cls-1" d="M24.41,209.32s17-61.51,13.24-73.76"/><path class="cls-1" d="M24.41,209.32s-1-36.09-13.66-47.39"/><polygon class="cls-5" points="158.08 225.28 158.08 236.58 160.66 246.44 163.45 246.44 166.86 235.86 166.86 225.28 158.08 225.28"/><polygon class="cls-5" points="117.28 220.16 117.28 231.47 119.86 241.32 122.65 241.32 126.06 230.75 126.06 220.16 117.28 220.16"/><polygon class="cls-5" points="235.87 225.28 235.87 236.58 238.45 246.44 241.24 246.44 244.65 235.86 244.65 225.28 235.87 225.28"/><polygon class="cls-5" points="212.12 214.7 212.12 226 214.71 235.86 217.49 235.86 220.91 225.28 220.91 214.7 212.12 214.7"/><path class="cls-2" d="M121.67,210.4H226.88V143.28c0-2.27-1.33-4.48-3.86-6.26a46.6,46.6,0,0,0-26.61-8.58H128.86Z"/><path class="cls-3" d="M137.13,149.75V135.68a5.37,5.37,0,0,0-1.55-3.79c-6.33-6.41-11.07-2.07-13,.38a4.42,4.42,0,0,0-.93,2.73v29.17h15.24Z"/><path class="cls-4" d="M160.66,227.44H107.93V166.53a9.2,9.2,0,0,1,1.93-5.68c2.44-3.13,7.08-7.73,13.34-7.78h33.86Z"/><path class="cls-4" d="M252.24,225.28h-52V166.36a8.89,8.89,0,0,1,1.9-5.51c2.41-3,7-7.47,13.16-7.52h33.39Z"/><path class="cls-3" d="M214.08,227.44h45.17V166.53a9.2,9.2,0,0,0-1.93-5.68c-4-5.12-9.11-14.3-21.75-.13a12,12,0,0,0-3.22,7.92v40.23L213,208.18h-19.4l-24.34-.39V167.56a11.33,11.33,0,0,0-3.22-7.92c-13.22-13.37-18.9-3.91-22.89,1.21a9.2,9.2,0,0,0-1.93,5.68v60.91h72.85Z"/><path class="cls-6" d="M217,146.36l5.89,23.06,15.26-15.63,2.07-.46,3,2.4-19.08,21.9s-11.75-5.72-12.08-10.49S217,146.36,217,146.36Z"/><path class="cls-2" d="M198.71,185.21s-12.39,16.73,0,21.38,19.52-1,19.52-1l42.52,4.11,39.88,31.6L298.46,245h24.47l-16.73-5.88-37.86-42.75S204.59,180.7,198.71,185.21Z"/><path class="cls-7" d="M207.92,202.63H183.48a5.35,5.35,0,0,1-5-4.91l-11.53-82.13c-.5-3.54,1.89-6.76,5-6.76h42.51c3,0,5.33,3,5.06,6.36L213,197.33C212.74,200.33,210.55,202.63,207.92,202.63Z"/><path class="cls-2" d="M182.61,192.34s-12.39,16.73,0,21.38,19.52-1,19.52-1l42.52,4.11,39.88,31.6-2.17,3.71h24.47l-16.72-5.88L252.24,203.5S188.5,187.83,182.61,192.34Z"/><path class="cls-3" d="M43.46,157.15c-6.68,6.95-3.39,13.57.5,17.32s10.87,5.85,17.56-1.1,10.55-20.31,6.65-24.06S50.15,150.21,43.46,157.15Z"/><path class="cls-1" d="M24.41,209.32c-3.34,0,13.85-40,33.9-47.39"/><ellipse class="cls-2" cx="202.58" cy="80.38" rx="8.87" ry="7.54"/><path class="cls-6" d="M185.83,108.83l11.32,9.52,8.2-9.52-7-.24V102s16.4.39,10.94-13.67h5.46l-6.64-5.85-2.73-11.72S178,59,190.13,99.61v8.59Z"/><circle class="cls-2" cx="187.71" cy="82.47" r="11.28"/><ellipse class="cls-2" cx="198.64" cy="72.52" rx="8.87" ry="7.54"/><ellipse class="cls-2" cx="179.37" cy="92.18" rx="8.87" ry="7.54"/><ellipse class="cls-2" cx="174.65" cy="98.09" rx="6.19" ry="5.27"/><ellipse class="cls-2" cx="174.65" cy="102.41" rx="4.52" ry="3.85"/><path class="cls-8" d="M233,159.14l17.08-18.45"/><path class="cls-6" d="M170.13,138.39h9.73l1.68,17.34,54.33-5.35,1.71-4,2.68,4,12-.33v2.75l-10.27.53v2.4h-10.1l-53.31,7.82a4.39,4.39,0,0,1-5-3.66Z"/></g></g></g></svg>